<svg width="128" height="128" viewBox="0 0 128 128" fill="none" xmlns="http://www.w3.org/2000/svg">
<path d="M108 20H20C17.8783 20 15.8434 20.8429 14.3431 22.3431C12.8429 23.8434 12 25.8783 12 28V100C12 102.122 12.8429 104.157 14.3431 105.657C15.8434 107.157 17.8783 108 20 108H108C110.122 108 112.157 107.157 113.657 105.657C115.157 104.157 116 102.122 116 100V28C116 25.8783 115.157 23.8434 113.657 22.3431C112.157 20.8429 110.122 20 108 20ZM62.5 67.125L42.5 83.125C42.0896 83.4533 41.6186 83.6976 41.1138 83.8438C40.609 83.9901 40.0804 84.0355 39.5581 83.9775C39.0357 83.9194 38.5299 83.7591 38.0696 83.5056C37.6092 83.2521 37.2033 82.9104 36.875 82.5C36.5467 82.0896 36.3024 81.6186 36.1562 81.1138C36.0099 80.609 35.9645 80.0804 36.0225 79.5581C36.0806 79.0357 36.2409 78.5299 36.4944 78.0696C36.7479 77.6092 37.0896 77.2033 37.5 76.875L53.595 64L37.5 51.125C37.0896 50.7967 36.7479 50.3908 36.4944 49.9304C36.2409 49.4701 36.0806 48.9643 36.0225 48.4419C35.9645 47.9196 36.0099 47.391 36.1562 46.8862C36.3024 46.3814 36.5467 45.9104 36.875 45.5C37.2033 45.0896 37.6092 44.7479 38.0696 44.4944C38.5299 44.2409 39.0357 44.0806 39.5581 44.0225C40.0804 43.9645 40.609 44.0099 41.1138 44.1562C41.6186 44.3024 42.0896 44.5467 42.5 44.875L62.5 60.875C62.969 61.2497 63.3476 61.7252 63.6078 62.2661C63.868 62.8071 64.0031 63.3997 64.0031 64C64.0031 64.6003 63.868 65.1929 63.6078 65.7339C63.3476 66.2748 62.969 66.7503 62.5 67.125ZM88 84H68C66.9391 84 65.9217 83.5786 65.1716 82.8284C64.4214 82.0783 64 81.0609 64 80C64 78.9391 64.4214 77.9217 65.1716 77.1716C65.9217 76.4214 66.9391 76 68 76H88C89.0609 76 90.0783 76.4214 90.8284 77.1716C91.5786 77.9217 92 78.9391 92 80C92 81.0609 91.5786 82.0783 90.8284 82.8284C90.0783 83.5786 89.0609 84 88 84Z" fill="#3063FF"/>
</svg>
